<?xml version="1.0" standalone="no"?>
<!DOCTYPE svg PUBLIC "-//W3C//DTD SVG 20010904//EN"
 "http://www.w3.org/TR/2001/REC-SVG-20010904/DTD/svg10.dtd">
<svg version="1.0" xmlns="http://www.w3.org/2000/svg"
 width="2703.000000pt" height="1568.000000pt" viewBox="0 0 2703.000000 1568.000000"
 preserveAspectRatio="xMidYMid meet">

<g transform="translate(0.000000,1568.000000) scale(0.100000,-0.100000)"
fill="#000000" stroke="none">
<path d="M13385 15063 c-215 -26 -439 -91 -615 -179 -36 -17 -630 -357 -1320
-754 -1177 -677 -5665 -3259 -6105 -3512 -110 -63 -625 -359 -1145 -657 -1020
-586 -1089 -627 -1195 -709 -493 -384 -730 -1026 -606 -1639 58 -285 198 -566
391 -785 212 -240 564 -447 875 -512 247 -52 465 -54 702 -6 219 44 362 104
660 278 104 60 1304 751 2668 1535 1364 784 2746 1578 3070 1764 325 187 1093
629 1708 982 l1117 643 153 -89 c321 -188 1616 -947 3177 -1863 4665 -2736
5348 -3135 5466 -3195 112 -58 310 -125 449 -152 127 -25 450 -25 590 1 520
94 975 439 1200 909 289 601 205 1287 -220 1802 -78 95 -229 232 -334 303 -47
32 -419 254 -826 492 -765 447 -1159 679 -5400 3165 -1386 813 -2702 1584
-2925 1715 -409 239 -515 297 -628 343 -82 34 -218 72 -322 91 -134 25 -480
42 -585 29z"/>
<path d="M4240 14140 c-19 -3 -50 -14 -69 -24 -111 -58 -2382 -1353 -2410
-1373 -72 -55 -101 -182 -62 -270 33 -72 1362 -2407 1385 -2431 65 -72 185
-101 267 -65 24 11 312 172 639 358 730 414 1508 856 1653 939 186 105 221
148 222 271 l0 70 -264 465 c-145 256 -453 798 -684 1205 -231 407 -430 754
-442 770 -45 61 -156 101 -235 85z"/>
<path d="M18974 5650 c-437 -25 -727 -160 -871 -405 -127 -216 -126 -422 3
-565 130 -143 403 -215 954 -250 294 -19 384 -36 402 -76 11 -23 7 -29 -37
-74 -66 -67 -127 -92 -241 -98 -132 -7 -234 27 -303 102 l-24 26 -423 0 -423
0 16 -52 c22 -77 80 -189 130 -252 119 -152 335 -259 619 -307 108 -19 169
-22 374 -22 240 0 329 7 490 39 100 21 263 85 340 135 297 192 422 571 255
774 -41 51 -147 123 -225 153 -173 69 -382 105 -760 132 -410 29 -457 49 -352
150 71 69 151 94 280 88 113 -5 185 -32 245 -92 l36 -36 421 0 422 0 -7 33
c-21 98 -107 245 -192 330 -205 205 -594 297 -1129 267z"/>
<path d="M3450 4665 l0 -957 798 5 c924 5 985 9 1278 87 354 94 562 271 629
534 40 160 40 499 -1 665 -71 285 -306 467 -721 557 -240 52 -334 56 -1190 61
l-793 5 0 -957z m1550 455 c85 -22 184 -67 228 -101 46 -35 93 -105 111 -164
42 -133 35 -317 -15 -421 -52 -108 -172 -187 -346 -226 -80 -18 -136 -22 -410
-25 l-318 -5 0 487 0 487 333 -5 c305 -4 339 -6 417 -27z"/>
<path d="M7621 5606 c-16 -19 -1211 -1887 -1211 -1892 0 -2 181 -3 402 -2
l402 3 90 158 90 157 605 -2 604 -3 90 -157 90 -158 398 0 c220 0 399 3 399 6
0 4 -1022 1606 -1191 1866 l-24 38 -366 0 c-305 0 -369 -2 -378 -14z m544
-817 c88 -154 162 -284 163 -290 4 -10 -650 -13 -660 -4 -5 5 91 176 284 508
21 37 42 67 46 67 4 0 79 -126 167 -281z"/>
<path d="M11100 4665 l0 -955 395 0 395 0 0 153 c0 83 4 157 8 163 18 26 473
324 485 317 6 -4 193 -148 413 -320 l402 -313 512 2 513 3 -674 480 c-370 264
-674 485 -675 490 -2 6 300 217 671 470 l673 460 -516 3 -516 2 -41 -28 c-197
-141 -1237 -852 -1245 -852 -7 0 -10 149 -10 440 l0 440 -395 0 -395 0 0 -955z"/>
<path d="M15741 5528 c-33 -51 -307 -480 -610 -953 l-551 -860 393 -3 c215 -1
397 0 403 2 6 2 51 74 99 160 l89 156 605 -2 605 -3 90 -157 90 -158 399 0
c329 0 398 2 394 13 -3 8 -276 437 -607 955 l-603 942 -368 0 -369 0 -59 -92z
m597 -738 c83 -146 154 -273 158 -283 6 -16 -16 -17 -326 -17 -288 0 -331 2
-328 15 2 8 75 140 163 294 119 208 163 277 171 268 6 -7 79 -131 162 -277z"/>
<path d="M21737 5553 c-24 -38 -293 -457 -597 -933 -304 -476 -560 -875 -568
-887 l-14 -23 403 0 404 0 90 160 90 160 605 -3 604 -2 90 -157 90 -158 403 0
403 0 -30 48 c-16 26 -290 454 -609 952 l-579 905 -371 3 -371 2 -43 -67z
m581 -765 c89 -156 162 -286 162 -290 0 -5 -149 -8 -331 -8 -269 0 -330 2
-327 13 5 22 320 567 328 567 3 0 79 -127 168 -282z"/>
<path d="M7210 2205 l0 -695 160 0 160 0 0 695 0 695 -160 0 -160 0 0 -695z"/>
<path d="M1180 2171 l0 -661 158 0 157 0 0 237 0 238 175 6 c194 7 245 19 347
86 105 69 163 188 163 333 0 191 -96 321 -286 392 -55 20 -80 22 -386 26
l-328 4 0 -661z m597 382 c55 -28 86 -91 79 -162 -5 -58 -24 -91 -70 -125 -24
-18 -45 -21 -162 -24 l-134 -4 0 164 c0 91 3 168 8 172 4 5 59 6 124 4 89 -4
125 -10 155 -25z"/>
<path d="M22920 2685 l0 -125 -65 0 -65 0 0 -130 0 -129 63 -3 62 -3 5 -275
c4 -236 8 -281 23 -315 33 -73 67 -112 125 -143 71 -38 147 -52 279 -52 l103
0 0 135 0 135 -75 0 c-95 0 -122 12 -135 61 -6 21 -9 127 -8 246 l3 208 108 3
108 3 -3 127 -3 127 -105 5 -105 5 -3 123 -3 122 -154 0 -155 0 0 -125z"/>
<path d="M2835 2564 c-92 -22 -117 -31 -170 -60 -246 -135 -337 -465 -203
-736 62 -123 203 -229 345 -258 94 -20 264 -8 346 23 246 95 376 339 326 613
-34 188 -174 348 -347 400 -55 16 -253 29 -297 18z m179 -276 c56 -17 119 -84
137 -145 22 -80 16 -184 -16 -248 -88 -180 -342 -159 -396 33 -7 26 -13 79
-12 118 2 184 127 289 287 242z"/>
<path d="M4337 2559 c-65 -15 -134 -57 -191 -116 l-56 -57 0 87 0 87 -160 0
-160 0 0 -525 0 -525 160 0 160 0 0 268 c0 296 7 346 57 395 41 38 104 57 194
57 l79 0 0 170 c0 192 6 180 -83 159z"/>
<path d="M5040 2563 c-68 -12 -134 -38 -187 -72 -152 -100 -225 -247 -225
-456 0 -175 53 -308 161 -407 99 -91 205 -128 361 -128 157 0 269 42 363 135
53 52 118 162 133 228 l6 27 -168 0 -169 0 -20 -37 c-39 -71 -113 -100 -200
-77 -101 25 -151 124 -143 283 5 103 31 167 86 209 31 24 44 27 108 27 83 0
116 -17 149 -78 l20 -37 169 0 168 0 -6 28 c-4 15 -23 61 -43 102 -62 128
-181 220 -321 249 -51 11 -191 13 -242 4z"/>
<path d="M6290 2563 c-193 -34 -340 -165 -392 -352 -24 -85 -26 -240 -3 -338
39 -169 172 -307 343 -354 76 -22 212 -25 294 -8 158 33 302 154 352 296 l15
42 -170 3 c-93 2 -169 0 -169 -3 0 -4 -16 -23 -36 -42 -112 -109 -300 -43
-329 116 l-7 37 366 0 366 0 1 38 c6 143 -23 273 -80 356 -71 102 -193 184
-310 206 -53 10 -191 12 -241 3z m181 -254 c56 -19 96 -55 114 -103 29 -77 32
-76 -188 -76 -107 0 -196 3 -199 6 -4 3 -2 19 3 36 31 111 158 174 270 137z"/>
<path d="M8157 2560 c-152 -38 -284 -183 -328 -360 -20 -80 -18 -270 5 -344
46 -152 133 -262 253 -319 64 -30 74 -32 183 -32 110 0 118 2 182 33 36 18 82
50 102 72 20 22 38 40 41 40 3 0 5 -31 5 -70 l0 -70 160 0 160 0 -2 523 -3
522 -157 3 -158 3 0 -71 c0 -38 -1 -70 -3 -70 -2 0 -25 21 -52 46 -74 72 -140
98 -255 101 -52 1 -112 -2 -133 -7z m268 -271 c54 -14 118 -67 148 -123 32
-60 32 -203 0 -263 -49 -92 -133 -140 -227 -130 -86 9 -149 56 -185 137 -71
164 2 344 154 381 44 10 62 10 110 -2z"/>
<path d="M9813 2560 c-69 -14 -138 -49 -179 -91 -21 -21 -42 -39 -46 -39 -4 0
-8 29 -8 65 l0 65 -155 0 -155 0 -2 -525 -3 -525 158 0 157 0 0 308 c0 194 4
322 11 347 17 60 82 120 144 133 102 21 187 -16 229 -100 l26 -52 0 -318 0
-318 161 0 160 0 -4 358 c-5 378 -8 406 -56 501 -30 58 -111 138 -164 161 -76
34 -190 46 -274 30z"/>
<path d="M10913 2555 c-139 -39 -250 -156 -304 -320 -20 -59 -24 -90 -23 -200
0 -116 3 -139 27 -209 50 -143 125 -231 247 -290 61 -29 72 -31 180 -31 103 0
121 3 171 26 31 15 78 47 104 73 27 25 50 46 52 46 2 0 3 -31 3 -70 l0 -70
158 0 157 0 -3 525 -2 525 -155 0 -155 0 0 -70 c0 -38 -2 -70 -5 -70 -2 0 -24
19 -48 43 -24 24 -70 57 -102 73 -51 24 -73 29 -155 31 -61 2 -114 -2 -147
-12z m324 -284 c44 -23 83 -62 109 -111 28 -53 27 -200 -3 -256 -123 -231
-443 -137 -443 131 0 193 178 318 337 236z"/>
<path d="M12270 2551 c-79 -25 -130 -54 -172 -96 -104 -105 -114 -276 -23
-382 47 -55 130 -95 280 -133 132 -34 193 -58 214 -83 21 -26 16 -66 -12 -95
-31 -30 -114 -41 -170 -23 -38 13 -97 71 -97 96 0 13 -26 15 -156 15 l-156 0
6 -37 c25 -141 165 -267 334 -302 68 -14 206 -14 274 0 132 28 239 109 272
206 35 101 11 219 -58 287 -55 56 -122 86 -285 130 -182 50 -211 66 -211 121
0 61 75 98 165 81 41 -8 105 -66 105 -96 0 -19 8 -20 149 -20 l149 0 -13 50
c-41 154 -131 246 -282 285 -80 21 -243 19 -313 -4z"/>
<path d="M14016 2554 c-241 -58 -388 -275 -373 -554 12 -226 129 -397 322
-470 74 -28 241 -38 328 -20 84 17 190 74 247 132 44 45 120 172 120 202 0 8
-49 10 -166 9 l-166 -2 -34 -40 c-27 -31 -45 -42 -85 -50 -129 -28 -228 38
-252 167 l-6 32 364 0 364 0 7 36 c9 49 -4 165 -27 239 -20 67 -79 164 -125
207 -52 48 -144 96 -214 112 -84 19 -224 19 -304 0z m232 -249 c65 -28 106
-79 113 -140 l4 -30 -198 -3 c-219 -3 -222 -2 -196 60 44 106 170 157 277 113z"/>
<path d="M16003 2555 c-58 -18 -121 -56 -162 -99 -19 -20 -37 -36 -40 -36 -4
0 -6 30 -6 67 l0 68 -157 3 -158 3 0 -776 0 -775 160 0 160 0 -3 320 c-1 176
-1 320 1 320 2 0 24 -20 48 -44 69 -69 141 -99 250 -104 151 -7 253 34 351
142 91 100 133 222 133 391 0 117 -19 205 -61 291 -34 68 -111 152 -174 189
-86 51 -248 70 -342 40z m93 -270 c52 -15 113 -66 142 -119 24 -44 24 -218 0
-262 -80 -147 -259 -178 -369 -65 -116 120 -91 357 46 429 63 33 112 38 181
17z"/>
<path d="M17420 2556 c-71 -20 -110 -44 -173 -107 -32 -33 -60 -59 -63 -59 -2
0 -4 38 -4 85 l0 85 -155 0 -155 0 0 -525 0 -525 158 0 157 0 0 283 c0 281 0
282 25 332 37 73 87 98 210 105 l95 5 0 165 0 165 -25 2 c-14 1 -45 -4 -70
-11z"/>
<path d="M18090 2552 c-167 -44 -295 -172 -346 -347 -23 -80 -23 -247 -1 -334
48 -179 178 -310 354 -356 67 -18 210 -20 285 -4 135 28 267 128 326 248 18
35 32 70 32 78 0 10 -34 13 -165 13 l-165 0 -36 -39 c-80 -89 -239 -71 -304
34 -12 19 -24 53 -27 75 l-6 40 367 0 366 0 0 87 c0 164 -49 291 -151 388 -64
62 -155 109 -238 125 -80 15 -217 11 -291 -8z m238 -248 c20 -8 52 -29 70 -47
32 -31 59 -98 47 -117 -4 -6 -85 -10 -201 -10 -156 0 -196 3 -200 14 -8 22 36
105 70 130 62 47 147 59 214 30z"/>
<path d="M19303 2555 c-171 -46 -266 -158 -266 -310 0 -148 81 -233 268 -285
258 -71 278 -79 295 -119 27 -67 -36 -117 -141 -109 -66 5 -118 38 -139 87
l-12 31 -155 0 -155 0 6 -35 c13 -66 46 -126 98 -179 91 -90 216 -136 373
-136 150 0 255 34 337 108 117 105 119 309 4 410 -51 44 -97 66 -207 97 -52
15 -125 36 -163 47 -83 24 -119 55 -114 100 6 65 108 99 192 64 37 -16 76 -60
76 -87 0 -18 10 -19 149 -19 l148 0 -8 46 c-5 25 -23 73 -41 106 -71 133 -200
199 -390 197 -57 0 -127 -7 -155 -14z"/>
<path d="M20570 2563 c-196 -34 -346 -172 -397 -364 -22 -85 -22 -243 1 -329
45 -173 174 -304 345 -352 75 -21 211 -24 293 -7 136 28 273 132 329 249 50
104 62 95 -128 92 l-166 -3 -39 -39 c-65 -65 -167 -73 -252 -21 -37 23 -86
107 -86 148 l0 23 365 0 365 0 0 93 c0 158 -46 278 -143 376 -59 60 -165 116
-246 131 -53 10 -192 11 -241 3z m181 -255 c49 -14 104 -66 119 -113 22 -65
22 -65 -194 -65 -130 0 -197 4 -202 11 -3 6 7 36 22 67 25 48 37 61 83 85 59
29 110 34 172 15z"/>
<path d="M22030 2560 c-61 -13 -142 -56 -181 -96 -18 -19 -37 -34 -41 -34 -4
0 -8 29 -8 65 l0 65 -155 0 -155 0 0 -525 0 -525 154 0 155 0 3 318 c3 297 4
320 24 362 12 25 35 57 52 72 78 66 235 50 290 -29 39 -57 42 -86 42 -409 l0
-314 160 0 160 0 0 321 c0 342 -8 431 -45 516 -41 92 -133 175 -221 201 -58
17 -180 23 -234 12z"/>
<path d="M24090 2564 c-113 -22 -239 -97 -300 -178 -86 -114 -115 -219 -107
-391 5 -125 24 -187 87 -283 83 -130 220 -201 400 -210 127 -5 196 7 288 53
105 53 205 168 237 273 l6 22 -168 0 -169 0 -22 -30 c-33 -44 -78 -63 -147
-63 -108 0 -177 59 -198 171 l-6 32 363 0 c412 0 376 -8 376 88 -1 128 -51
273 -124 358 -46 53 -135 113 -206 137 -54 19 -252 32 -310 21z m205 -263 c65
-30 105 -86 105 -147 l0 -24 -200 0 c-195 0 -200 1 -200 20 0 28 33 90 62 117
57 53 159 68 233 34z"/>
<path d="M25260 2556 c-57 -16 -138 -57 -177 -90 -73 -61 -111 -200 -83 -301
16 -57 73 -123 137 -158 28 -14 117 -45 198 -67 204 -56 229 -71 223 -132 -10
-105 -226 -104 -275 2 l-18 39 -154 1 -154 0 6 -40 c17 -132 152 -256 323
-296 94 -22 255 -15 347 15 127 41 212 138 224 255 11 103 -30 194 -114 256
-42 31 -168 78 -283 105 -149 35 -194 74 -165 141 15 36 52 54 111 54 68 0
132 -42 149 -97 6 -22 10 -23 152 -23 l146 0 -7 39 c-10 66 -43 129 -98 188
-83 88 -182 123 -343 122 -55 0 -120 -6 -145 -13z"/>
</g>
</svg>
